<?xml version="1.0" encoding="UTF-8"?><svg id="Layer_1" xmlns="http://www.w3.org/2000/svg" viewBox="0 0 360 360"><defs><style>.cls-1{fill:#fff;}.cls-2{fill:#325a8b;}.cls-3{fill:#8891b2;}</style></defs><ellipse class="cls-1" cx="180" cy="180" rx="178.85" ry="178.42"/><g><g><path class="cls-3" d="M315.97,137.78c-17.99-58-72.06-100.12-135.97-100.12S62.02,79.78,44.03,137.78H315.97Z"/><path class="cls-3" d="M43.68,221c17.61,58.63,71.96,101.35,136.32,101.35s118.71-42.72,136.32-101.35H43.68Z"/></g><g><path class="cls-3" d="M315.97,137.78c-17.99-58-72.06-100.12-135.97-100.12S62.02,79.78,44.03,137.78H315.97Z"/><path class="cls-3" d="M43.68,221c17.61,58.63,71.96,101.35,136.32,101.35s118.71-42.72,136.32-101.35H43.68Z"/></g></g><path d="M0,180C0,279.25,80.75,360,180,360s180-80.75,180-180S279.25,0,180,0,0,80.74,0,180Zm2.47,0C2.47,82.1,82.11,2.47,180,2.47s177.53,79.63,177.53,177.52-79.64,177.53-177.53,177.53S2.47,277.89,2.47,180Z"/><path d="M5.87,180c0,96.01,78.11,174.13,174.13,174.13s174.13-78.12,174.13-174.13S276.01,5.87,180,5.87,5.87,83.98,5.87,180Zm7.91,0C13.78,88.34,88.35,13.78,180,13.78s166.22,74.56,166.22,166.22-74.57,166.22-166.22,166.22S13.78,271.65,13.78,180Z"/><g><path class="cls-2" d="M65.25,137.78h38.12l-44.66-27.65,51.55,27.65h15.77l-53.35-47.64,60.53,47.64h7.85l-51.14-64.91,58.02,64.91h4.33L109.88,58.86l48.91,78.92h2.59l-29.4-89.24,35.67,89.24h1.71l-13.82-95.57,19.95,95.57h1.33l3.01-97.72,3.05,97.72h1.34l19.91-95.62-13.8,95.62h1.71l35.66-89.33-29.39,89.33h2.57l48.93-79.04-42.4,79.04h4.3l58.09-65.06-51.21,65.06h7.79l60.68-47.82-53.5,47.82h15.66l51.86-27.85-44.94,27.85h37.81l17.45-5.75-14.39,5.75h18.95c-17.99-58-72.06-100.12-135.97-100.12S62.02,79.78,44.03,137.78h18.25l-13.87-5.54,16.84,5.54Z"/><path class="cls-2" d="M290.93,221h-36.38l46.64,28.87-53.82-28.87h-14.88l54.73,48.87-62.07-48.87h-7.27l52.11,66.13-59.1-66.13h-3.9l43.03,80.14-49.66-80.14h-2.24l29.81,90.46-36.16-90.46h-1.41l14.01,96.79-20.2-96.79h-1.05l-3.05,98.94-3.09-98.94h-1.05l-20.16,96.83,13.97-96.83h-1.4l-36.15,90.54,29.79-90.54h-2.22l-49.68,80.25,43.05-80.25h-3.86l-59.18,66.27,52.17-66.27h-7.2l-62.23,49.04,54.87-49.04h-14.75l-54.13,29.07,46.9-29.07h-36.08l-21.15,6.97,17.43-6.97h-22.24c17.61,58.63,71.96,101.35,136.32,101.35s118.71-42.72,136.32-101.35h-21.77l16.93,6.76-20.54-6.76Z"/></g><g><path d="M42.45,210.56v-61.01h63.37v11.11H63.9v12.53h29.05v11h-29.05v14.93h41.92v11.44H42.45Z"/><path d="M144.78,211.43c-8.58,0-17.16-2.18-23.27-6.21-7.92-5.12-12.05-13.4-12.05-25.06s4.29-20.37,12.87-25.6c6.28-3.81,15.02-5.99,24.26-5.99,17.49,0,28.71,7.08,32.34,17.54l-20.13,2.4c-2.32-6.1-6.44-8.93-12.87-8.93-9.57,0-14.19,5.23-14.19,20.15s4.29,20.59,15.35,20.59c6.93,0,12.04-3.27,15.84-9.91l17.33,3.38c-6.6,12.42-18.15,17.65-35.48,17.65Z"/><path d="M209.8,160.77v12.75h33.02v11.11h-33.02v25.93h-21.46v-61.01h63.55v11.22h-42.09Z"/><path d="M295.11,210.56l-5.11-13.83h-21.96l-5.11,13.83h-22.28l28.06-61.01h20.63l28.22,61.01h-22.44Zm-16.01-40.85l-6.77,16.01h13.37l-6.6-16.01Z"/></g></svg>